<?xml version="1.0" encoding="UTF-8"?>
<svg id="Warstwa_1" data-name="Warstwa 1" xmlns="http://www.w3.org/2000/svg" viewBox="0 0 644.24 360.02">
  <defs>
    <style>
      .cls-1 {
        fill: #ff5636;
      }

      .cls-2 {
        fill: #fff;
      }

      .cls-3 {
        fill: #ffce32;
      }

      .cls-4 {
        fill: #991801;
      }

      .cls-5 {
        fill: #7f9799;
      }

      .cls-6 {
        fill: #d02c0d;
      }

      .cls-7, .cls-8 {
        fill: #11c4bd;
      }

      .cls-9 {
        fill: #3a77ff;
      }

      .cls-10 {
        fill: #23e5db;
      }

      .cls-10, .cls-8 {
        fill-rule: evenodd;
      }
    </style>
  </defs>
  <path class="cls-10" d="M410.65,360.02h-79.73V25.02h79.73V360.02Z"/>
  <path class="cls-5" d="M289,252.02l7.5,2.5-2-4-3-4-2.5,5.5Z"/>
  <path class="cls-10" d="M163.8,330.89c76.54,0,138.66-61.71,138.66-137.96S240.23,54.96,163.69,54.96,25.04,116.77,25.04,192.93s62.22,137.96,138.76,137.96Zm-.05-179.64c23.17,0,41.9,18.62,41.9,41.67s-18.73,41.67-41.9,41.67-41.9-18.62-41.9-41.67,18.72-41.67,41.9-41.67Z"/>
  <path class="cls-6" d="M263.5,69.52L180.02,18.02c-19.08,9.73-64.8,27.9-75.6,35.69-27,19.47-39.42,34.07-39.42,34.07,0,0,50.5,23.75,109,50.75s138.76,72.15,138,63.5c-6.25-71-18.18-91.41-48.5-132.5Z"/>
  <path class="cls-4" d="M263.5,69.52L180.02,18.02c-19.08,9.73-64.49,28.34-75.6,35.69-29.92,19.79-31.42,27.29-31.42,27.29l31.42,4.5,159.08-15.98Z"/>
  <path class="cls-7" d="M37.32,136.1c23.85,.89,61.55,9.77,99.54,24.85,7.27-6.05,16.64-9.69,26.89-9.69,23.17,0,41.9,18.62,41.9,41.67,0,.91-.03,1.82-.09,2.72,33.82,20.85,63.88,45.05,79.21,64.78,9.31-16.49,15.32-35.08,17.12-54.89-22.71-24.67-66.3-56.97-118.88-80.01-42.74-18.73-88.73-31.64-115.55-31.88-12.56,12.05-22.84,26.44-30.13,42.46Z"/>
  <path class="cls-5" d="M43,125.02l-4.5-5h7.5l-3,5Z"/>
  <path class="cls-2" d="M178.5,161.52c52.17,26.84,103.56,66.41,118,93,0,0,36.24-34.08,15.37-59.29-20.87-25.21-67.14-60.85-123.87-85.71-44.5-19.5-92.52-32.7-118.76-31.85-26.24,.85-30.74,42.35-30.74,42.35,30.74,0,89.29,15.42,140,41.5Z"/>
  <path class="cls-1" d="M29.35,44.52l234.15,25S163.5,1.02,155.66,.02C147.82-.98,25,33.67,25,33.67l4.35,10.85Z"/>
  <circle class="cls-2" cx="25" cy="42.02" r="25"/>
  <path class="cls-2" d="M330.93,336.01c-10.9-2.06-19.7-5.28-24.71-9.23l-4.71-3.71-7.43,9.42,4.71,3.71c6.84,5.39,18.23,9.56,32.14,11.98v-12.18Z"/>
  <path class="cls-1" d="M641.63,97.07c-7.66-11.51-31.24-16.2-65.11-18.93,.18-.05,.36-.09,.54-.14,21.62-5.57,34.33-12.61,38.84-21.52,1.87-3.68,3.25-9.56-.75-16.64-2.78-4.93-7.09-7.81-12.47-8.35-9.65-.96-22.43,5.88-39.09,20.9-11.54,10.41-20.6,20.88-20.98,21.32l-1.11,1.29-.52,.53-.23-.69c-4.78-12.77-13.73-24.91-25.62-34.63-12.36-10.1-25.66-15.74-35.54-15.08-8.29,.55-13.9,5.6-15.02,13.52-1.01,7.17,1.6,14.76,7.55,21.95,11.81,14.28,34.91,24.45,59.44,26.89,2.29,18.12-3.58,32.47-17.49,42.68-4.79,3.52-10.49,6.54-16.97,9.06v12.74c8.69-2.95,16.93-6.88,24.07-12.13,16.93-12.44,24.63-30.23,22.52-51.76,32.96,1.65,80.69,4.71,87.95,15.62,.61,.92,.88,1.9,.22,3.74l-2.04,5.64,11.28,4.09,2.04-5.64c1.87-5.17,1.35-10.18-1.51-14.48Zm-160.27-44.1c-3.69-4.46-5.44-8.95-4.92-12.63,.24-1.69,.68-3,3.93-3.22,.27-.02,.55-.03,.83-.03,11.68,0,36.02,14.95,46.57,37.77-16.38-2.33-35.73-8.98-46.42-21.9Zm119.38-9.57c.26,0,.51,.01,.76,.04,1.21,.12,2.22,.56,3.2,2.3,1.48,2.62,1.08,4.16,.49,5.32-3.8,7.5-23.13,13.95-41.57,17.77,13.15-13,28.77-25.43,37.11-25.43Z"/>
  <path class="cls-8" d="M330.93,266.74c1.16-.12,2.53-.2,4.14-.2,7.59,0,16.79,1.54,26.34,4.21q10.79,3.51,18.1,6.29c11.89,4.94,23.09,11.27,31.15,18.21v-15.19c-4.26-2.94-9.03-5.78-14.32-8.49-.95-.48-1.9-.96-2.87-1.43-2.75-1.24-7.97-3.49-14.26-6.11-15.65-5.88-31.97-9.49-44.13-9.49-1.45,0-2.83,.05-4.14,.16v12.05Z"/>
  <path class="cls-2" d="M396.33,266.9c-.95-.48-1.9-.96-2.87-1.43-2.75-1.24-7.97-3.49-14.26-6.11-15.65-5.88-31.97-9.49-44.13-9.49-6.07,0-11,.9-14.65,2.68-5.11,2.49-7.92,6.73-7.92,11.96,0,5.99,3.03,10.95,8.53,13.95,2.71,1.48,6.03,2.49,9.9,3.03v-12.17c-3.32-.67-6.43-2.03-6.43-4.81,0-.28,0-.6,1.17-1.17,1.12-.55,3.84-1.47,9.4-1.47,7.59,0,16.79,1.54,26.34,4.21q10.79,3.51,18.1,6.29c23.03,9.57,43.5,24.35,43.5,38.63,0,6.73-4.16,12.48-12.35,17.12v13.4c.82-.36,1.63-.73,2.42-1.11,18.13-8.79,21.93-20.84,21.93-29.4,0-15.67-13.73-31.33-38.67-44.1Z"/>
  <circle class="cls-1" cx="454.57" cy="323.07" r="25"/>
  <path class="cls-7" d="M330.93,180.16c2.05-.46,4.52-.7,7.33-.7,4.91,0,10.82,.7,17.21,2.07,5.49,1.27,12.61,3.36,17.02,4.99,5.75,2.13,11.51,4.73,16.98,7.8,11.01,6.18,17.46,12.22,21.19,17.52v-17.43c-4.33-3.73-9.45-7.27-15.31-10.56-3.2-1.8-6.62-3.5-10.16-5.08-4.56-2.16-8.58-3.72-13.94-5.35-14.39-4.69-29.28-7.03-40.31-5.41v12.15Z"/>
  <path class="cls-2" d="M395.34,178.51c-3.2-1.8-6.62-3.5-10.16-5.08-4.56-2.16-8.58-3.72-13.94-5.35-19.55-6.37-40.04-8.43-50.48-2.05-4.88,2.98-7.46,7.67-7.25,13.19,.34,9.16,6.83,14.72,17.42,15.08v-11.99c-5.26-.26-5.38-2.27-5.43-3.53-.03-.85,.06-1.62,1.51-2.51,2.36-1.44,6.29-2.15,11.25-2.15s10.82,.7,17.21,2.07c5.49,1.27,12.61,3.36,17.02,4.99,5.75,2.13,11.51,4.73,16.98,7.8,22.65,12.71,26.03,24.89,26.03,31.02,0,5.44-1.92,10.44-4.85,14.93v18.16c10.97-10.09,16.85-21.46,16.85-33.08,0-15.12-11.42-29.85-32.16-41.49Z"/>
  <circle class="cls-9" cx="370.5" cy="203.11" r="25"/>
  <path class="cls-7" d="M330.93,105.56c1.11-.88,2.36-1.71,3.76-2.51,8.32-4.72,19.95-7.05,31.76-7.05,12.99,0,26.21,2.82,35.5,8.37,3.73,2.23,6.63,4.76,8.7,7.58v-16.24c-.82-.56-1.67-1.11-2.55-1.64-20.54-12.27-55.86-13.32-77.18-2.61v14.09Z"/>
  <path class="cls-2" d="M472.78,145.69c-13.22,2.2-28.23,2.96-44.56,2.2-4.63-.22-9.26-.56-13.86-1.01,9.85-12.96,12-23.73,12.14-30.24,.28-12.53-6.08-23.04-18.39-30.4-21.25-12.7-58.33-13.38-79.34-1.45-10.43,5.92-16.2,14.64-16.26,24.56-.51,11.15,8.87,19.91,18.43,25.9v-14.78c-4.34-3.74-6.61-7.41-6.44-10.64v-.33c0-5.64,3.44-10.45,10.19-14.28,8.32-4.72,19.95-7.05,31.76-7.05,12.99,0,26.21,2.82,35.5,8.37,8.51,5.08,12.73,11.76,12.55,19.83-.1,4.43-1.42,9.14-3.85,13.99v28.19c5.64,.61,11.33,1.06,17,1.33,11.59,.55,28.11,.53,45.13-2.09v-12.1Z"/>
  <circle class="cls-3" cx="321.5" cy="67.02" r="25"/>
  <path class="cls-10" d="M613.02,109.18h-52.99l-31.11,30.92-31.11-30.92h-52.99v53.6l30.69,30.51-30.69,30.51v52.88h53.82l30.38-30.2,30.38,30.2h53.82v-52.88l-30.69-30.51,30.69-30.51v-53.6h-.21Z"/>
</svg>